<svg width="50" height="51" viewBox="0 0 50 51" fill="none" xmlns="http://www.w3.org/2000/svg">
<path d="M24.9999 49.1201C38.2574 49.1201 49.0024 38.3751 49.0024 25.1201C49.0028 21.968 48.3822 18.8466 47.176 15.9344C45.9699 13.0221 44.2019 10.376 41.973 8.14706C39.7441 5.91815 37.098 4.15015 34.1857 2.94403C31.2734 1.7379 28.1521 1.11728 24.9999 1.11761C11.7474 1.11761 0.999942 11.8626 0.999941 25.1201C0.99994 38.3751 11.7474 49.1201 24.9999 49.1201ZM25.0024 6.12012C27.4976 6.12011 29.9682 6.61156 32.2734 7.5664C34.5786 8.52124 36.6732 9.92077 38.4375 11.6851C40.2018 13.4494 41.6013 15.5439 42.5562 17.8491C43.511 20.1543 44.0024 22.625 44.0024 25.1201C44.0024 27.6152 43.511 30.0859 42.5562 32.3911C41.6013 34.6963 40.2018 36.7908 38.4375 38.5551C36.6732 40.3195 34.5786 41.719 32.2734 42.6738C29.9682 43.6287 27.4976 44.1201 25.0024 44.1201C22.5073 44.1201 20.0366 43.6287 17.7315 42.6738C15.4263 41.719 13.3317 40.3195 11.5674 38.5551C9.8031 36.7908 8.40357 34.6963 7.44873 32.3911C6.49389 30.0859 6.00244 27.6152 6.00244 25.1201C6.00244 22.625 6.49389 20.1543 7.44873 17.8491C8.40357 15.5439 9.8031 13.4494 11.5674 11.6851C13.3317 9.92077 15.4263 8.52124 17.7315 7.5664C20.0366 6.61156 22.5073 6.12011 25.0024 6.12012ZM24.9999 36.3701L36.2499 25.1201L24.9999 13.8701L24.9999 20.1201L14.9999 20.1201L14.9999 30.1201L24.9999 30.1201L24.9999 36.3701Z" fill="#1BF2CB"/>
</svg>
