<svg width="50" height="51" viewBox="0 0 50 51" fill="none" xmlns="http://www.w3.org/2000/svg">
<path d="M25.0001 1.12012C11.7426 1.12012 0.997559 11.8651 0.997559 25.1201C0.99723 28.2723 1.61785 31.3936 2.82397 34.3059C4.03009 37.2181 5.79809 39.8643 8.027 42.0932C10.2559 44.3221 12.902 46.0901 15.8143 47.2962C18.7266 48.5023 21.8479 49.1229 25.0001 49.1226C38.2526 49.1226 49.0001 38.3776 49.0001 25.1201C49.0001 11.8651 38.2526 1.12012 25.0001 1.12012ZM24.9976 44.1201C22.5024 44.1201 20.0318 43.6287 17.7266 42.6738C15.4214 41.719 13.3268 40.3195 11.5625 38.5551C9.79822 36.7908 8.39869 34.6963 7.44385 32.3911C6.48901 30.0859 5.99756 27.6152 5.99756 25.1201C5.99756 22.625 6.48901 20.1543 7.44385 17.8491C8.39869 15.5439 9.79822 13.4494 11.5625 11.6851C13.3268 9.92078 15.4214 8.52125 17.7266 7.56641C20.0318 6.61157 22.5024 6.12012 24.9976 6.12012C27.4927 6.12012 29.9634 6.61157 32.2685 7.56641C34.5737 8.52125 36.6683 9.92078 38.4326 11.6851C40.1969 13.4494 41.5964 15.5439 42.5513 17.8491C43.5061 20.1543 43.9976 22.625 43.9976 25.1201C43.9976 27.6152 43.5061 30.0859 42.5513 32.3911C41.5964 34.6963 40.1969 36.7908 38.4326 38.5551C36.6683 40.3195 34.5737 41.719 32.2685 42.6738C29.9634 43.6287 27.4927 44.1201 24.9976 44.1201ZM25.0001 13.8701L13.7501 25.1201L25.0001 36.3701V30.1201H35.0001V20.1201H25.0001V13.8701Z" fill="#1BF2CB"/>
</svg>
