<svg xmlns="http://www.w3.org/2000/svg" viewBox="0 0 112.39 91.54"><defs><style>.cls-1{fill:#21409a;}.cls-2{fill:#a7a9ac;}.cls-3{fill:#231f20;}</style></defs><title>GKLogoAsset 1</title><g id="Layer_2" data-name="Layer 2"><g id="Layer_1-2" data-name="Layer 1"><polygon class="cls-1" points="64.83 8.63 64.83 82.89 112.39 82.89 112.39 87.21 60.51 87.21 60.51 4.31 112.39 4.31 112.39 8.63 64.83 8.63"/><polygon class="cls-2" points="112.39 0 112.39 17.55 103.76 17.55 103.76 8.63 93.75 8.63 93.75 0 112.39 0"/><line class="cls-1" x1="86.45" y1="41.45" x2="86.45" y2="50.09"/><polygon class="cls-2" points="112.39 41.45 112.39 91.54 93.75 91.54 93.75 82.9 103.76 82.9 103.76 50.09 86.45 50.09 86.45 41.45 112.39 41.45"/><polygon class="cls-2" points="112.39 0 112.39 8.63 64.83 8.63 64.83 82.89 112.39 82.89 112.39 91.53 56.19 91.53 56.19 0 112.39 0"/><polygon class="cls-3" points="56.19 0 56.19 91.53 47.56 91.53 47.56 56.19 12.22 91.53 0 91.53 45.77 45.77 6.71 6.71 3.68 3.68 0.01 0 12.22 0 47.56 35.34 47.56 0 56.19 0"/></g></g></svg>