<svg xmlns="http://www.w3.org/2000/svg" viewBox="0 0 286.61 286.59"><defs><style>.cls-1{fill:#1bf2cb;}.cls-2{fill:#fff;}.cls-3{fill:#0aa696;}</style></defs><g id="Layer_2" data-name="Layer 2"><g id="Layer_1-2" data-name="Layer 1"><polygon class="cls-1" points="75.44 286.59 0 286.59 0 211.15 5.73 211.15 5.73 280.86 75.44 280.86 75.44 286.59"/><polygon class="cls-1" points="286.61 75.44 280.88 75.44 280.88 5.73 211.17 5.73 211.17 0 286.61 0 286.61 75.44"/><path class="cls-2" d="M106.92,106.88l17.54,17.54a61.75,61.75,0,0,1-14.54,11.52q-14.85,8.51-34.84,8.5-21.39,0-38.16-9.29A67.92,67.92,0,0,1,10.4,108.67,73.85,73.85,0,0,1,.63,71.58a68.88,68.88,0,0,1,18-47.45Q40,.13,74.33.14a84.71,84.71,0,0,1,33.54,6.63Q121,12.37,133.65,26L115.23,44.22Q97.76,25.73,74.47,25.73q-20.3,0-34,13.45a44.09,44.09,0,0,0-13.7,32.69A45.28,45.28,0,0,0,41,105.59q14.22,13.81,35.06,13.82,13.57,0,22.87-5.7A33.81,33.81,0,0,0,106.92,106.88Z"/><polygon class="cls-2" points="285.94 286.24 239.7 286.24 166.99 242.37 166.99 286.24 143.11 286.24 143.11 95.88 74.14 95.88 74.14 71.19 166.99 71.19 166.99 187.14 239.65 143.3 285.88 143.3 167.45 214.74 285.94 286.24"/><path class="cls-3" d="M68.22,234.14l8.54-6a2.21,2.21,0,0,0,.85-1.2l5.6-20.24L71,218.87a3.89,3.89,0,1,1-3.08-3.09l12.22-12.22-20.25,5.6a2.19,2.19,0,0,0-1.2.85l-6,8.54Z"/><path class="cls-3" d="M49.83,221.93l-9.61,9.6a2.19,2.19,0,0,0,0,3.09l11.92,11.93a2.19,2.19,0,0,0,3.09,0l9.61-9.61Z"/><path class="cls-3" d="M40.5,202l5.79,5.79a2.19,2.19,0,0,0,3.09,0L55.16,202a2.17,2.17,0,0,0,0-3.09l-1.35-1.35,1.33-1.32a25,25,0,0,1,30.39-3.86l-.79.8a2.16,2.16,0,0,0,0,3.08L90.52,202a2.17,2.17,0,0,0,3.09,0l.78-.78a25.05,25.05,0,0,1-3.89,30.33l-1.32,1.32-1.35-1.35a2.19,2.19,0,0,0-3.09,0L79,237.34a2.19,2.19,0,0,0,0,3.09l5.79,5.79a2.19,2.19,0,0,0,3.09,0l5.79-5.79a2.19,2.19,0,0,0,0-3.09L92.26,236l1.33-1.32a29.38,29.38,0,0,0,7.79-27.57L106.3,212a5.31,5.31,0,1,0,3.09-3.09L98.05,197.59l1.35-1.35a2.18,2.18,0,0,0,0-3.08l-5.79-5.79a2.17,2.17,0,0,0-3.09,0l-1.35,1.35L77.78,177.33a5.31,5.31,0,1,0-3.09,3.08l4.92,4.92a29.39,29.39,0,0,0-27.56,7.8l-1.32,1.32-1.35-1.35a2.19,2.19,0,0,0-3.09,0l-5.79,5.79a2.17,2.17,0,0,0,0,3.09Z"/><path class="cls-3" d="M194.84,107.89h16.83a2.09,2.09,0,0,0,2.08-2.09V97.46a2.08,2.08,0,0,0-2.08-2.09h-6.4V91.2h21v4.56a6.26,6.26,0,1,0,4.17,0V91.2h20.85v4.17H245A2.08,2.08,0,0,0,243,97.46v8.34a2.09,2.09,0,0,0,2.09,2.09h16.82A2.1,2.1,0,0,0,264,105.8V97.46a2.09,2.09,0,0,0-2.09-2.09h-6.39V89.11A2.09,2.09,0,0,0,253.38,87H230.44V81.5l11.9-11.91a2.09,2.09,0,0,0,0-3l-11.9-11.9V49.35h10.43A2.09,2.09,0,0,0,243,47.26V38.78a2.09,2.09,0,0,0-2.08-2.09h-25a2.09,2.09,0,0,0-2.09,2.09v8.48a2.09,2.09,0,0,0,2.09,2.09h10.43v5.39l-11.91,11.9a2.09,2.09,0,0,0,0,3L226.27,81.5V87H203.18a2.08,2.08,0,0,0-2.08,2.08v6.26h-6.26a2.08,2.08,0,0,0-2.08,2.09v8.34A2.09,2.09,0,0,0,194.84,107.89Z"/></g></g></svg>