<svg xmlns="http://www.w3.org/2000/svg" viewBox="0 0 796.56 99.99"><defs><style>.cls-1{fill:#1bf2cb;}.cls-2{fill:#fff;}.cls-3{fill:#0aa696;}</style></defs><g id="Layer_2" data-name="Layer 2"><g id="Layer_1-2" data-name="Layer 1"><polygon class="cls-1" points="26.32 99.99 0 99.99 0 73.67 2 73.67 2 97.99 26.32 97.99 26.32 99.99"/><polygon class="cls-1" points="100 26.32 98 26.32 98 2 73.68 2 73.68 0 100 0 100 26.32"/><path class="cls-2" d="M37.3,37.29l6.12,6.12a21.8,21.8,0,0,1-5.07,4,24,24,0,0,1-12.15,3,26.93,26.93,0,0,1-13.32-3.25,23.68,23.68,0,0,1-9.25-9.24A25.72,25.72,0,0,1,.22,25,24.06,24.06,0,0,1,6.51,8.42Q14,0,25.94.05A29.6,29.6,0,0,1,37.63,2.36a26.72,26.72,0,0,1,9,6.71L40.2,15.43A19,19,0,0,0,26,9a16.22,16.22,0,0,0-11.85,4.69A15.38,15.38,0,0,0,9.35,25.08a15.78,15.78,0,0,0,5,11.76,16.87,16.87,0,0,0,12.23,4.82,15,15,0,0,0,8-2A11.76,11.76,0,0,0,37.3,37.29Z"/><polygon class="cls-2" points="99.77 99.87 83.63 99.87 58.26 84.56 58.26 99.87 49.93 99.87 49.93 33.45 25.87 33.45 25.87 24.84 58.26 24.84 58.26 65.29 83.61 50 99.74 50 58.42 74.92 99.77 99.87"/><path class="cls-3" d="M23.8,81.69l3-2.11a.75.75,0,0,0,.3-.42l2-7.06-4.26,4.27a1.38,1.38,0,0,1-.38,1.22,1.36,1.36,0,1,1-.7-2.3L28,71l-7.06,2a.73.73,0,0,0-.42.29l-2.11,3Z"/><path class="cls-3" d="M17.39,77.43,14,80.78a.78.78,0,0,0,0,1.08L18.19,86a.76.76,0,0,0,1.08,0l3.35-3.35Z"/><path class="cls-3" d="M14.13,70.47l2,2a.76.76,0,0,0,1.08,0l2-2a.78.78,0,0,0,0-1.08l-.47-.47.46-.46a8.73,8.73,0,0,1,10.6-1.34l-.28.27a.78.78,0,0,0,0,1.08l2,2a.76.76,0,0,0,1.08,0l.27-.27A8.74,8.74,0,0,1,31.58,80.8l-.47.46-.47-.47a.75.75,0,0,0-1.07,0l-2,2a.76.76,0,0,0,0,1.08l2,2a.77.77,0,0,0,1.07,0l2-2a.76.76,0,0,0,0-1.08l-.47-.47.46-.46a10.25,10.25,0,0,0,2.72-9.62L37.09,74a1.85,1.85,0,1,0,1.08-1.08l-4-4,.47-.47a.76.76,0,0,0,0-1.08l-2-2a.78.78,0,0,0-1.08,0l-.47.47-4-4a1.85,1.85,0,0,0-3-2,1.86,1.86,0,0,0,2,3.05l1.72,1.71a10.26,10.26,0,0,0-9.62,2.72l-.46.46-.47-.47a.78.78,0,0,0-1.08,0l-2,2a.76.76,0,0,0,0,1.08Z"/><path class="cls-3" d="M68,37.64h5.87a.73.73,0,0,0,.73-.73V34a.73.73,0,0,0-.73-.72H71.62V31.82H79v1.59a2.19,2.19,0,1,0,1.45,0V31.82h7.28v1.46H85.49a.72.72,0,0,0-.72.72v2.91a.72.72,0,0,0,.72.73h5.87a.72.72,0,0,0,.73-.73V34a.72.72,0,0,0-.73-.72H89.13V31.09a.73.73,0,0,0-.72-.73h-8V28.43l4.15-4.15a.72.72,0,0,0,0-1L80.4,19.1V17.22H84a.73.73,0,0,0,.73-.73v-3A.73.73,0,0,0,84,12.8H75.31a.73.73,0,0,0-.73.73v3a.73.73,0,0,0,.73.73H79V19.1l-4.16,4.15a.74.74,0,0,0,0,1L79,28.43v1.93H70.89a.73.73,0,0,0-.73.73v2.19H68a.73.73,0,0,0-.73.72v2.91A.73.73,0,0,0,68,37.64Z"/><path class="cls-2" d="M203.76,26.37l-8.67,8.57q-8.22-8.7-19.18-8.7a21.88,21.88,0,0,0-16,6.32,20.75,20.75,0,0,0-6.45,15.38,21.3,21.3,0,0,0,6.69,15.87,22.78,22.78,0,0,0,16.5,6.5,20.2,20.2,0,0,0,10.75-2.68,18.86,18.86,0,0,0,7.06-8.39H175.76V47.68h32.52l.09,2.72A31.75,31.75,0,0,1,204,66.49a30.74,30.74,0,0,1-11.39,11.6,32.36,32.36,0,0,1-16.39,4,36.45,36.45,0,0,1-17.95-4.37,32,32,0,0,1-12.48-12.46,34.77,34.77,0,0,1-4.59-17.45,32.4,32.4,0,0,1,8.48-22.32q10.07-11.29,26.19-11.3a39.93,39.93,0,0,1,15.78,3.12A36.26,36.26,0,0,1,203.76,26.37Z"/><path class="cls-2" d="M215.53,32.65h10.29v6a12.85,12.85,0,0,1,4.43-5.4,10.74,10.74,0,0,1,6.07-1.85,11.24,11.24,0,0,1,4.88,1.23L237.46,43A8.28,8.28,0,0,0,234,41.92c-1.85,0-3.41,1.15-4.68,3.43s-1.91,6.77-1.91,13.45l0,2.33V80.46H215.53Z"/><path class="cls-2" d="M282.42,32.65h12V80.46h-12v-5a23.37,23.37,0,0,1-7.05,4.81,19.73,19.73,0,0,1-7.66,1.47,21.28,21.28,0,0,1-16-7.18,25.1,25.1,0,0,1-6.76-17.86q0-11.08,6.54-18.15a20.84,20.84,0,0,1,15.89-7.08,20.12,20.12,0,0,1,8.08,1.63,22.19,22.19,0,0,1,7,4.87Zm-12.61,9.84a12.16,12.16,0,0,0-9.25,3.94,14.17,14.17,0,0,0-3.67,10.08,14.32,14.32,0,0,0,3.74,10.2,12.16,12.16,0,0,0,9.22,4,12.32,12.32,0,0,0,9.37-3.94,14.36,14.36,0,0,0,3.72-10.3,14,14,0,0,0-3.72-10.11A12.5,12.5,0,0,0,269.81,42.49Z"/><path class="cls-2" d="M306.54,32.65h12v4.9a28.78,28.78,0,0,1,7.39-4.78,17.83,17.83,0,0,1,6.78-1.35,16.41,16.41,0,0,1,12.07,5Q349,40.61,349,48.87V80.46H337.09V59.53q0-8.56-.77-11.37a7.77,7.77,0,0,0-2.68-4.28,7.48,7.48,0,0,0-4.71-1.47,8.86,8.86,0,0,0-6.25,2.43,13,13,0,0,0-3.61,6.74,54.29,54.29,0,0,0-.53,9.7V80.46h-12Z"/><path class="cls-2" d="M362,15h12V32.65h7.12V43H374V80.46H362V43h-6.15V32.65H362Z"/><path class="cls-2" d="M414.12,15.82h12.44V38.11l17.55-22.29h14.77L436.31,44.67l24.77,35.79H446.49L426.56,51.74V80.46H414.12Z"/><path class="cls-2" d="M516.43,60H477.89a12.8,12.8,0,0,0,4.46,8.11,14,14,0,0,0,9.25,3,16,16,0,0,0,11.55-4.71l10.11,4.75a23.73,23.73,0,0,1-9.05,7.93,28.23,28.23,0,0,1-12.52,2.57q-11.25,0-18.33-7.09a24.15,24.15,0,0,1-7.08-17.78q0-10.93,7.06-18.17A23.69,23.69,0,0,1,491,31.42q11.3,0,18.37,7.23t7.07,19.09Zm-12-9.45a12,12,0,0,0-4.69-6.5,13.59,13.59,0,0,0-8.12-2.51,14.36,14.36,0,0,0-8.8,2.81,15.7,15.7,0,0,0-4.41,6.2Z"/><path class="cls-2" d="M526.14,32.65h12v4.9a28.61,28.61,0,0,1,7.39-4.78,17.83,17.83,0,0,1,6.78-1.35,16.43,16.43,0,0,1,12.07,5q4.17,4.22,4.17,12.48V80.46H556.68V59.53q0-8.56-.77-11.37a7.76,7.76,0,0,0-2.67-4.28,7.48,7.48,0,0,0-4.71-1.47,8.85,8.85,0,0,0-6.25,2.43,13,13,0,0,0-3.62,6.74,54.64,54.64,0,0,0-.52,9.7V80.46h-12Z"/><path class="cls-2" d="M580.15,32.65h12v4.9a28.64,28.64,0,0,1,7.4-4.78,17.83,17.83,0,0,1,6.78-1.35,16.43,16.43,0,0,1,12.07,5q4.15,4.22,4.16,12.48V80.46H610.69V59.53q0-8.56-.77-11.37a7.76,7.76,0,0,0-2.67-4.28,7.51,7.51,0,0,0-4.72-1.47,8.84,8.84,0,0,0-6.24,2.43,13,13,0,0,0-3.62,6.74,54.29,54.29,0,0,0-.53,9.7V80.46h-12Z"/><path class="cls-2" d="M682.06,60H643.52A12.8,12.8,0,0,0,648,68.14a14,14,0,0,0,9.25,3,16,16,0,0,0,11.55-4.71l10.11,4.75a23.73,23.73,0,0,1-9,7.93,28.23,28.23,0,0,1-12.52,2.57q-11.25,0-18.33-7.09a24.15,24.15,0,0,1-7.08-17.78q0-10.93,7.06-18.17a23.69,23.69,0,0,1,17.69-7.23q11.3,0,18.36,7.23t7.08,19.09Zm-12-9.45a12,12,0,0,0-4.69-6.5,13.59,13.59,0,0,0-8.12-2.51,14.36,14.36,0,0,0-8.8,2.81,15.7,15.7,0,0,0-4.41,6.2Z"/><path class="cls-2" d="M727.06,14.19h12V80.46h-12v-5a23.49,23.49,0,0,1-7,4.81,19.73,19.73,0,0,1-7.66,1.47,21.28,21.28,0,0,1-16-7.18,25.06,25.06,0,0,1-6.76-17.86q0-11.08,6.54-18.15A20.84,20.84,0,0,1,712,31.42a20.12,20.12,0,0,1,8.08,1.63,22.19,22.19,0,0,1,7,4.87Zm-12.62,28.3a12.15,12.15,0,0,0-9.24,3.94,14.17,14.17,0,0,0-3.68,10.08,14.33,14.33,0,0,0,3.75,10.2,12.16,12.16,0,0,0,9.22,4,12.34,12.34,0,0,0,9.37-3.94,14.36,14.36,0,0,0,3.72-10.3,14,14,0,0,0-3.72-10.11A12.51,12.51,0,0,0,714.44,42.49Z"/><path class="cls-2" d="M745.88,32.65h12.26l12.42,30,13.7-30h12.3L766.61,98H754.22l9.83-21Z"/></g></g></svg>