<svg xmlns="http://www.w3.org/2000/svg" viewBox="0 0 259.76 92.2"><title>Asset 1</title><g id="Layer_2" data-name="Layer 2"><g id="Layer_1-2" data-name="Layer 1"><path d="M28.38,29.28l7.5,13.32H27.6L20.7,30.3H10.26L7.86,42.6H0L8.4.6H24.72c10.14,0,16,4.68,16,12.66C40.68,21.42,36.12,27.12,28.38,29.28ZM32.82,14c0-4.56-3.24-6.78-8.94-6.78H14.94L11.58,23.88h9.3C28.44,23.88,32.82,20.46,32.82,14Z"/><polygon points="60.06 0.6 50.26 49.6 48.95 56.2 35.34 56.2 28.32 91.6 20.52 91.6 27.6 56.2 13.68 56.2 15 49.6 42.46 49.6 52.26 0.6 60.06 0.6"/><path d="M96,21.12h7.38L100,38A25.56,25.56,0,0,1,84.3,43.2c-12.6,0-20.4-7.26-20.4-17.94C63.9,11,74.16,0,90,0c7.68,0,13.38,2.46,16.86,6.9l-5.64,4.68c-2.76-3.36-6.48-4.74-11.58-4.74-10.92,0-17.88,7.86-17.88,17.94,0,6.9,4.56,11.58,13.44,11.58a17.27,17.27,0,0,0,8.16-2Z"/><path d="M155,.6l-8.4,42h-7.74l3.54-17.82H120.66L117.12,42.6h-7.8l8.4-42h7.8L122.1,17.82h21.72L147.24.6Z"/><path d="M173.52,7.2H159.6L160.92.6h35.64l-1.38,6.6H181.26l-7,35.4h-7.8Z"/><path d="M76.5,78.28,84,91.6H75.72l-6.9-12.3H58.38L56,91.6H48.12l8.4-42H72.84c10.14,0,16,4.68,16,12.66C88.8,70.42,84.24,76.12,76.5,78.28ZM80.94,63c0-4.56-3.24-6.78-8.94-6.78H63.06L59.7,72.88H69C76.56,72.88,80.94,69.46,80.94,63Z"/><path d="M122.56,81.88H101.44L95.38,91.6H87l27.3-42h7.74l10.44,42h-7.74Zm-1.44-6.12-4.26-18.48L105.28,75.76Z"/><path d="M136.22,74.26C136.22,60,146.48,49,162.08,49c7.2,0,13,2.46,16,7l-5.64,4.74c-2.28-3.18-5.88-4.92-10.86-4.92-10.74,0-17.46,8.1-17.46,17.94,0,7,4.56,11.58,13.14,11.58a16,16,0,0,0,11.94-4.86l4.56,4.92c-4.08,4.68-10.14,6.78-17.1,6.78C143.84,92.2,136.22,84.88,136.22,74.26Z"/><path d="M202.52,69.16,217.46,91.6h-8.7L196.82,73.9l-8,7L186.68,91.6h-7.74l8.4-42h7.74l-4.26,21.24L215.24,49.6h9.84L202.64,69.1Z"/><path d="M190.93,23.43H188.7V21.2h2.23Zm49-2.23h-2.23v2.23H240ZM195.39,19h-2.23v6.69h2.23Zm40.12,0h-2.23v6.69h2.23ZM204.3,19h-2.23v6.69h2.23Zm22.29-2.23h-2.23V27.89h2.23Zm-26.74,0h-2.23V27.89h2.23Zm31.2-2.23h-2.23V30.12h2.23Zm-22.29,0h-2.23V30.12h2.23Zm4.46-4.45H211V32.35h2.23Zm8.91,0H219.9V32.35h2.23ZM217.68,5.6h-2.23V36.8h2.23Z"/><path d="M257.54,68.51h2.22v2.23h-2.22ZM253.08,73h2.23V66.29h-2.23Zm-8.92,0h2.23V66.29h-2.23ZM221.87,75.2h2.23V64.06h-2.23Zm26.75,0h2.23V64.06h-2.23Zm-8.91,2.23h2.22V61.83h-2.22Zm-4.46,4.46h2.23V59.6h-2.23Zm-8.92,0h2.23V59.6h-2.23Zm4.46,4.46H233V55.14h-2.23Z"/></g></g></svg>