<?xml version="1.0" encoding="utf-8"?>
<!-- Generator: Adobe Illustrator 25.1.0, SVG Export Plug-In . SVG Version: 6.00 Build 0)  -->
<svg version="1.1" id="Capa_1" xmlns="http://www.w3.org/2000/svg" xmlns:xlink="http://www.w3.org/1999/xlink" x="0px" y="0px"
	 viewBox="0 0 346.4 346.4" style="enable-background:new 0 0 346.4 346.4;" xml:space="preserve">
<style type="text/css">
	.st0{fill:#0AA696;}
</style>
<g>
	<path class="st0" d="M223.5,236.5c6.1,21,18.6,38.4,33.3,53.7c3.4,3.4,9.3,1.7,11.5-2.2c9.3-20.5,16.7-42.6,17.3-65.3
		c0.1-6.8-10.4-6.5-11.1-0.3c-2.9,16.8-7.7,33.2-14.3,49.1c-3.4-4-6.9-8.7-9.7-13.3c4.7,3.9,14.3,1.3,13.6-6.7
		c-3.5-45.1-3.3-48.1-2.9-94c0.7-77.9-165.1,32.5-202.9-8.1c-4.3-4.7-11.9-5.6-16.8-1.5c-7.9,6.7,1.2,14.9,11,19
		c65.4,30,188.8-56.6,190-3.1c1,46.2,1.5,42.7,5,89.1c0.1,0.6,0.1,1.2,0.1,1.2c-4.2-7-7.4-14.1-9.8-22.5
		C235.8,221.9,220.9,226.8,223.5,236.5z"/>
</g>
</svg>
