<?xml version="1.0" encoding="utf-8"?>
<!-- Generator: Adobe Illustrator 25.1.0, SVG Export Plug-In . SVG Version: 6.00 Build 0)  -->
<svg version="1.1" id="Capa_1" xmlns="http://www.w3.org/2000/svg" xmlns:xlink="http://www.w3.org/1999/xlink" x="0px" y="0px"
	 viewBox="0 0 346.4 346.4" style="enable-background:new 0 0 346.4 346.4;" xml:space="preserve">
<style type="text/css">
	.st0{fill:#0AA696;}
</style>
<g>
	<path class="st0" d="M55.5,156c-20.7,6.9-37.6,20.1-52.4,35.4c-3.3,3.5-1.3,9.4,2.6,11.4c20.8,8.5,43.2,15,65.9,14.7
		c6.8-0.2,6.1-10.6-0.1-11.1c-16.9-2.2-33.5-6.4-49.6-12.4c3.9-3.6,8.4-7.2,12.9-10.2c-3.7,4.8-0.7,14.3,7.2,13.3
		c99.1-11.6,203.9-1.7,299.5-31.4c7.7-2.2,4.3-15.3-3.5-13.7c-98.6,20.2-198.3,17.1-298,28.7c-0.6,0.1-1.2,0.1-1.2,0.1
		c6.8-4.5,13.8-7.9,22.1-10.7C70.5,167.7,65,153,55.5,156z"/>
</g>
</svg>
